<?xml version="1.0" encoding="UTF-8" standalone="no"?>
<!-- Created with Inkscape (http://www.inkscape.org/) -->
<svg width="30" height="30" viewBox="0 0 66.145832 66.145832" version="1.1" id="svg26062" xmlns="http://www.w3.org/2000/svg" xmlns:svg="http://www.w3.org/2000/svg" xmlns:rdf="http://www.w3.org/1999/02/22-rdf-syntax-ns#" xmlns:cc="http://creativecommons.org/ns#" xmlns:dc="http://purl.org/dc/elements/1.1/">
  <title id="title26388">Adamjee Cantonment College Monogram</title>
  <defs id="defs26059"/>
  <g id="layer1">
    <g id="g25845" transform="matrix(1.2854942,0,0,1.2854942,-229.99596,21.841381)">
      <path d="m 179.33877,8.7371348 c 0,-13.9757424 11.32964,-25.3053858 25.30538,-25.3053858 13.97574,0 25.30539,11.3296434 25.30539,25.3053858 0,13.9757432 -11.32965,25.3053852 -25.30539,25.3053852 -13.97574,0 -25.30538,-11.329642 -25.30538,-25.3053852 z" fill="#4472c4" fill-rule="evenodd" id="path955" style="fill:#e40025;fill-opacity:1;stroke:#087cbc;stroke-width:0.844798;stroke-miterlimit:4;stroke-dasharray:none;stroke-opacity:1"/>
      <path d="m 187.87647,8.7371338 c 0,-9.26051099 7.50717,-16.7676813 16.76768,-16.7676813 9.26052,0 16.76769,7.50717031 16.76769,16.7676813 0,9.2605132 -7.50717,16.7676832 -16.76769,16.7676832 -9.26051,0 -16.76768,-7.50717 -16.76768,-16.7676832 z" fill="#4472c4" fill-rule="evenodd" id="path7807" style="fill:#00a038;fill-opacity:1;stroke:#ffffff;stroke-width:0.422398;stroke-miterlimit:4;stroke-dasharray:none;stroke-opacity:1"/>
      <path d="m 192.58331,8.7371348 c 0,-6.661004 5.39984,-12.060846 12.06084,-12.060846 6.66102,0 12.06085,5.399842 12.06085,12.060846 0,6.6610052 -5.39984,12.0608452 -12.06085,12.0608452 -6.661,0 -12.06084,-5.39984 -12.06084,-12.0608452 z" fill="#4472c4" fill-rule="evenodd" id="path10870" style="fill:#3f0e7d;fill-opacity:1;stroke:#ffffff;stroke-width:0.422398;stroke-miterlimit:4;stroke-dasharray:none;stroke-opacity:1"/>
      <g id="g24955">
        <path id="path46329" style="fill:#fffff4;fill-opacity:1;fill-rule:evenodd;stroke-width:0.0447038" d="m 188.76609,17.42005 -1.78603,0.07037 -0.95453,1.511206 -0.61885,-1.676873 -1.7322,-0.440825 1.40357,-1.106736 -0.11604,-1.78365 1.4863,0.992872 1.6605,-0.661532 -0.48499,1.720366 z"/>
        <path id="path46525" style="fill:#fffff4;fill-opacity:1;fill-rule:evenodd;stroke-width:0.0447038" d="m 220.52221,17.42005 1.78603,0.07037 0.95453,1.511206 0.61884,-1.676873 1.73222,-0.440825 -1.40357,-1.106736 0.11604,-1.78365 -1.4863,0.992872 -1.66051,-0.661532 0.485,1.720366 z"/>
      </g>
      <g id="g62035" transform="matrix(0.16895927,0,0,0.16895927,237.03835,-52.446261)">
        <g id="g61806" transform="translate(-300.83858,214.46782)">
          <path style="fill:#ffffff;fill-opacity:1;stroke:#ffffff;stroke-width:0.264583px;stroke-linecap:butt;stroke-linejoin:miter;stroke-opacity:1" d="M 56.091666,85.857291 C 57.875643,70.723979 67.760069,65.242265 81.227082,64.029166 78.901883,76.795385 66.951672,85.215474 56.091666,85.857291 Z" id="path59615"/>
          <path style="fill:#ffffff;fill-opacity:1;stroke:#ffffff;stroke-width:0.264583px;stroke-linecap:butt;stroke-linejoin:miter;stroke-opacity:1" d="M 34.375822,104.37747 C 34.044072,88.702854 38.168316,83.96443 48.373588,78.88029 48.921897,93.058104 43.45299,98.381078 34.375822,104.37747 Z" id="path59982"/>
          <path style="fill:#ffffff;fill-opacity:1;stroke:#ffffff;stroke-width:0.240784px;stroke-linecap:butt;stroke-linejoin:miter;stroke-opacity:1" d="m 25.51951,134.74897 c -0.30191,-14.26469 3.45136,-18.57689 12.738671,-23.20371 0.498989,12.90252 -4.477991,17.7467 -12.738671,23.20371 z" id="path60336"/>
          <path style="fill:#ffffff;fill-opacity:1;stroke:#ffffff;stroke-width:0.250647px;stroke-linecap:butt;stroke-linejoin:miter;stroke-opacity:1" d="m 27.38289,166.25567 c 2.270629,-14.67775 -1.01,-19.64282 -9.957796,-25.69258 -2.286909,13.2451 2.183361,18.92717 9.957796,25.69258 z" id="path60338"/>
          <path style="fill:#ffffff;fill-opacity:1;stroke:#ffffff;stroke-width:0.246139px;stroke-linecap:butt;stroke-linejoin:miter;stroke-opacity:1" d="m 40.332298,199.5063 c 4.044237,-13.76996 1.394096,-18.91686 -6.748146,-25.78596 -3.885606,12.39718 -0.14227,18.37379 6.748146,25.78596 z" id="path60420"/>
          <path style="fill:#ffffff;fill-opacity:1;stroke:#ffffff;stroke-width:0.266384px;stroke-linecap:butt;stroke-linejoin:miter;stroke-opacity:1" d="m 64.128443,219.59172 c -8.299112,-13.2476 -14.114344,-14.44237 -24.877784,-11.87963 7.31231,12.14765 14.499162,12.93384 24.877784,11.87963 z" id="path60422"/>
          <path style="fill:#ffffff;fill-opacity:1;stroke:#ffffff;stroke-width:0.240797px;stroke-linecap:butt;stroke-linejoin:miter;stroke-opacity:1" d="m 90.557988,231.65269 c -5.116566,-13.1721 -10.076411,-15.22121 -20.068039,-14.77533 4.427409,12.02781 10.674457,13.94731 20.068039,14.77533 z" id="path60588"/>
          <path style="fill:none;stroke:#ffffff;stroke-width:3.565;stroke-linecap:round;stroke-linejoin:round;stroke-miterlimit:4;stroke-dasharray:none;stroke-opacity:1" d="m 121.42054,240.22185 c -1.32364,-2.90672 -3.43761,-5.44889 -6.05415,-7.28047 -2.61655,-1.83159 -5.72874,-2.94773 -8.91294,-3.1965 -4.81106,-0.37587 -9.535909,1.18249 -14.312281,1.87089 -3.680875,0.53051 -7.422204,0.54398 -11.131777,0.28063 -2.669993,-0.18955 -5.354076,-0.52742 -7.88053,-1.41162 -2.526454,-0.88421 -4.904245,-2.35165 -6.525298,-4.48167 -1.811691,-2.38051 -2.552894,-5.38179 -3.267403,-8.2867 -0.556391,-2.26207 -1.126504,-4.53351 -2.050473,-6.67192 -0.923968,-2.13841 -2.225541,-4.15596 -4.036557,-5.62114 -2.254774,-1.82419 -5.131372,-2.67394 -7.960463,-3.31263 -2.829091,-0.63869 -5.731844,-1.12117 -8.352243,-2.36423 -3.853095,-1.82782 -6.79133,-5.16363 -9.131352,-8.72896 -1.938222,-2.95313 -3.55176,-6.14161 -4.530962,-9.53555 -0.979202,-3.39395 -1.31079,-7.00246 -0.707521,-10.48294 0.714924,-4.12466 2.697918,-7.91974 3.741774,-11.97367 1.564727,-6.07679 0.914777,-12.7119 -1.870887,-18.33469 -1.90074,-3.8366 -4.770762,-7.25627 -5.799748,-11.41241 -0.649128,-2.62186 -0.512813,-5.40443 0.171664,-8.01729 0.684477,-2.61286 1.902839,-5.06464 3.38302,-7.32398 2.311266,-3.5279 5.289804,-6.63197 8.793168,-8.98026 3.645359,-2.44347 7.806246,-4.04715 11.412408,-6.5481 5.08928,-3.529529 10.275473,-9.211674 12.020448,-15.154183" id="path60789"/>
        </g>
        <g id="g62015" transform="matrix(-1,0,0,1,-82.617084,214.46782)">
          <path style="fill:#ffffff;fill-opacity:1;stroke:#ffffff;stroke-width:0.264583px;stroke-linecap:butt;stroke-linejoin:miter;stroke-opacity:1" d="M 56.091666,85.857291 C 57.875643,70.723979 67.760069,65.242265 81.227082,64.029166 78.901883,76.795385 66.951672,85.215474 56.091666,85.857291 Z" id="path61999"/>
          <path style="fill:#ffffff;fill-opacity:1;stroke:#ffffff;stroke-width:0.264583px;stroke-linecap:butt;stroke-linejoin:miter;stroke-opacity:1" d="M 34.375822,104.37747 C 34.044072,88.702854 38.168316,83.96443 48.373588,78.88029 48.921897,93.058104 43.45299,98.381078 34.375822,104.37747 Z" id="path62001"/>
          <path style="fill:#ffffff;fill-opacity:1;stroke:#ffffff;stroke-width:0.240784px;stroke-linecap:butt;stroke-linejoin:miter;stroke-opacity:1" d="m 25.51951,134.74897 c -0.30191,-14.26469 3.45136,-18.57689 12.738671,-23.20371 0.498989,12.90252 -4.477991,17.7467 -12.738671,23.20371 z" id="path62003"/>
          <path style="fill:#ffffff;fill-opacity:1;stroke:#ffffff;stroke-width:0.250647px;stroke-linecap:butt;stroke-linejoin:miter;stroke-opacity:1" d="m 27.38289,166.25567 c 2.270629,-14.67775 -1.01,-19.64282 -9.957796,-25.69258 -2.286909,13.2451 2.183361,18.92717 9.957796,25.69258 z" id="path62005"/>
          <path style="fill:#ffffff;fill-opacity:1;stroke:#ffffff;stroke-width:0.246139px;stroke-linecap:butt;stroke-linejoin:miter;stroke-opacity:1" d="m 40.332298,199.5063 c 4.044237,-13.76996 1.394096,-18.91686 -6.748146,-25.78596 -3.885606,12.39718 -0.14227,18.37379 6.748146,25.78596 z" id="path62007"/>
          <path style="fill:#ffffff;fill-opacity:1;stroke:#ffffff;stroke-width:0.266384px;stroke-linecap:butt;stroke-linejoin:miter;stroke-opacity:1" d="m 64.128443,219.59172 c -8.299112,-13.2476 -14.114344,-14.44237 -24.877784,-11.87963 7.31231,12.14765 14.499162,12.93384 24.877784,11.87963 z" id="path62009"/>
          <path style="fill:#ffffff;fill-opacity:1;stroke:#ffffff;stroke-width:0.240797px;stroke-linecap:butt;stroke-linejoin:miter;stroke-opacity:1" d="m 90.557988,231.65269 c -5.116566,-13.1721 -10.076411,-15.22121 -20.068039,-14.77533 4.427409,12.02781 10.674457,13.94731 20.068039,14.77533 z" id="path62011"/>
          <path style="fill:none;stroke:#ffffff;stroke-width:3.565;stroke-linecap:round;stroke-linejoin:round;stroke-miterlimit:4;stroke-dasharray:none;stroke-opacity:1" d="m 121.42054,240.22185 c -1.32364,-2.90672 -3.43761,-5.44889 -6.05415,-7.28047 -2.61655,-1.83159 -5.72874,-2.94773 -8.91294,-3.1965 -4.81106,-0.37587 -9.535909,1.18249 -14.312281,1.87089 -3.680875,0.53051 -7.422204,0.54398 -11.131777,0.28063 -2.669993,-0.18955 -5.354076,-0.52742 -7.88053,-1.41162 -2.526454,-0.88421 -4.904245,-2.35165 -6.525298,-4.48167 -1.811691,-2.38051 -2.552894,-5.38179 -3.267403,-8.2867 -0.556391,-2.26207 -1.126504,-4.53351 -2.050473,-6.67192 -0.923968,-2.13841 -2.225541,-4.15596 -4.036557,-5.62114 -2.254774,-1.82419 -5.131372,-2.67394 -7.960463,-3.31263 -2.829091,-0.63869 -5.731844,-1.12117 -8.352243,-2.36423 -3.853095,-1.82782 -6.79133,-5.16363 -9.131352,-8.72896 -1.938222,-2.95313 -3.55176,-6.14161 -4.530962,-9.53555 -0.979202,-3.39395 -1.31079,-7.00246 -0.707521,-10.48294 0.714924,-4.12466 2.697918,-7.91974 3.741774,-11.97367 1.564727,-6.07679 0.914777,-12.7119 -1.870887,-18.33469 -1.90074,-3.8366 -4.770762,-7.25627 -5.799748,-11.41241 -0.649128,-2.62186 -0.512813,-5.40443 0.171664,-8.01729 0.684477,-2.61286 1.902839,-5.06464 3.38302,-7.32398 2.311266,-3.5279 5.289804,-6.63197 8.793168,-8.98026 3.645359,-2.44347 7.806246,-4.04715 11.412408,-6.5481 5.08928,-3.529529 10.275473,-9.211674 12.020448,-15.154183" id="path62013"/>
        </g>
      </g>
      <path id="path8371" style="fill:#ffffff;fill-opacity:1;stroke:#ffffff;stroke-width:0.0529167;stroke-linecap:round;stroke-linejoin:round;stroke-miterlimit:4;stroke-dasharray:none;stroke-opacity:1" d="m 221.89374,-3.948745 -0.36897,0.2663223 c 0.4747,0.6576462 0.91172,1.3420283 1.3094,2.0485376 l -0.14043,0.079018 c -0.34854,-0.2387076 -0.70089,-0.4640271 -1.05615,-0.6757402 -0.4176,-0.2501007 -0.78314,-0.4283861 -1.08245,-0.5454057 -0.12385,0.1562603 -0.24882,0.3113535 -0.37489,0.465271 0.22758,0.3267346 0.3089,0.7464331 0.22973,1.234978 -0.0666,0.39307355 -0.22624,0.77581457 -0.47489,1.1453691 0.0755,0.13555897 0.14939,0.27212146 0.22155,0.40963411 l 2.39337,-1.25815195 c 0.30159,0.70489632 0.25482,1.13704371 -0.0632,1.28313877 -0.26398,0.12125863 -0.45961,0.0358407 -0.59715,-0.24628047 -0.0502,-0.10294725 -0.0911,-0.18967623 -0.12203,-0.26140952 l -0.44986,0.22742222 c 0.0218,0.0640554 0.0383,0.10780664 0.0502,0.13188026 0.13662,0.27535983 0.31857,0.4744727 0.55471,0.60120008 0.25324,0.1431432 0.50857,0.1653516 0.76639,0.0550173 0.30834,-0.13194827 0.49434,-0.41790189 0.53353,-0.8698232 0.0382,-0.39714988 -0.0399,-0.78632092 -0.23246,-1.1525156 l 0.14265,-0.07499 c 0.27926,0.53101911 0.53673,1.07350761 0.77175,1.62559778 0.0389,0.0913352 0.0771,0.18293318 0.1148,0.2747855 0.1514,0.36939522 0.29282,0.74290382 0.42405,1.11997582 -0.45541,-0.2334745 -0.82218,-0.3696057 -1.08217,-0.4255811 -0.41461,-0.099681 -0.77735,-0.076532 -1.08877,0.050593 -0.52829,0.215653 -0.92978,0.5713202 -1.13179,1.0694806 -0.0805,0.1986364 -0.0866,0.5403403 0.0366,0.9369968 0.0425,0.1366269 0.15843,0.3543392 0.25357,0.4509061 l 0.51801,-0.1503635 c -0.15293,-0.1077215 -0.2455,-0.2122639 -0.27852,-0.3180126 -0.12163,-0.3895394 -0.10589,-0.7045604 0.0605,-0.9594573 0.14508,-0.2137229 0.41324,-0.3995487 0.80604,-0.5477209 0.32665,-0.1232153 0.73082,-0.1006667 1.20629,0.0987 0.45137,0.1916776 0.79584,0.4654625 1.02601,0.8084555 0.38507,1.3055887 0.64968,2.6469051 0.78596,4.0021564 l -1.27562,0.1282574 c 0.0934,-0.051625 0.17363,-0.1378574 0.23991,-0.2594921 0.0663,-0.1216588 0.0919,-0.2425028 0.0767,-0.3604484 -0.0403,-0.3116898 -0.26575,-0.5791454 -0.67061,-0.7820027 0.31414,-0.2939441 0.43394,-0.6362388 0.35241,-1.0088003 -0.0814,-0.3721796 -0.26386,-0.6449517 -0.5347,-0.8104323 -0.26533,-0.1622711 -0.56129,-0.1917444 -0.88505,-0.1003601 -0.31477,0.088847 -0.54875,0.2707693 -0.71048,0.5364942 -0.15735,0.2647447 -0.19846,0.5523849 -0.12795,0.8747542 0.008,0.03761 0.0267,0.1000213 0.0549,0.1897339 0.18363,0.022511 0.36731,0.046702 0.55103,0.072579 -0.029,-0.074076 -0.051,-0.1475633 -0.0662,-0.2199496 -0.0995,-0.473509 0.0221,-0.7590021 0.40045,-0.8535258 0.18593,-0.046448 0.3487,-0.040689 0.4886,0.02 0.16555,0.068355 0.27169,0.2010106 0.31444,0.3960214 0.0358,0.1632423 -0.0135,0.3186133 -0.14707,0.4618066 -0.1171,0.1306048 -0.2547,0.2092534 -0.41071,0.2388137 0.038,0.2003378 0.0729,0.4012201 0.10462,0.6025476 0.13368,-0.021059 0.28081,0.010026 0.44022,0.097283 0.16405,0.08655 0.2559,0.2026401 0.27438,0.3448221 0.0544,0.4187702 -0.31205,0.6580868 -1.07269,0.7329759 l -0.732,0.072069 c 0.0148,0.1501164 0.0276,0.3003537 0.0386,0.4506625 l 3.34721,-0.2452455 c 0.006,0.076752 0.0108,0.1535386 0.0156,0.2303559 0.006,0.094065 0.0111,0.1881753 0.0158,0.2823247 0.017,0.344706 0.0256,0.6899315 0.0257,1.0353225 0,0.2109821 -0.003,0.4219635 -0.009,0.6328592 -0.34559,-0.3323782 -0.68399,-0.4887586 -1.00064,-0.4908945 -0.24758,-0.00167 -0.44898,0.067942 -0.60524,0.2030676 -0.17084,0.1444085 -0.25961,0.3458079 -0.27204,0.6087307 -0.0131,0.276589 0.0773,0.524686 0.27389,0.754193 -0.0885,0.04817 -0.19114,0.06672 -0.30754,0.05651 -0.24674,-0.02163 -0.43297,-0.135513 -0.56364,-0.335357 -0.11805,-0.181358 -0.16976,-0.400232 -0.15941,-0.6621617 0.0109,-0.2762003 0.13951,-0.5274968 0.38828,-0.7669503 0.0304,-0.029096 0.0625,-0.05802 0.0965,-0.086792 0.23724,-0.1970125 0.52612,-0.3625765 0.86791,-0.4938976 -0.10387,-0.1136184 -0.20871,-0.22544 -0.31446,-0.3354633 -0.5816,0.2807562 -0.99428,0.582773 -1.23979,0.9161532 0,1e-7 0,1e-7 0,1e-7 -0.17332,0.2371082 -0.26417,0.4918252 -0.27568,0.7734865 -0.0373,0.9132811 0.32076,1.4385791 1.20103,1.5398191 0.3486,0.04009 0.60747,0.01238 0.77857,-0.08878 0.0195,-0.183473 0.0366,-0.367208 0.0513,-0.55114 -0.0894,-0.05468 -0.16366,-0.150159 -0.22486,-0.285472 -0.0565,-0.135024 -0.0823,-0.262132 -0.0764,-0.38301 0.009,-0.194481 0.12412,-0.2890354 0.34865,-0.2813049 0.37653,0.012964 0.71274,0.2620819 0.97775,0.7779659 -0.29398,0.04466 -0.55402,0.237393 -0.79245,0.565268 -0.21171,0.292379 -0.3574,0.60903 -0.4416,0.959088 -0.56053,-0.281172 -1.00971,-0.432542 -1.32153,-0.473562 -0.41676,-0.05482 -0.7907,0.01312 -1.12302,0.185723 0.0471,0.126969 0.093,0.255 0.13745,0.384066 0.22981,-0.130729 0.56034,-0.167786 0.9891,-0.100971 0.0646,0.01007 0.12437,0.02126 0.17915,0.03398 0.27406,0.07405 0.64996,0.283101 1.10005,0.646292 0.16827,-0.104549 0.33578,-0.212097 0.50245,-0.32262 -1.3e-4,-0.08814 0.006,-0.172474 0.0178,-0.253723 0.0842,-0.571024 0.30955,-0.904396 0.71496,-1.00032 -0.0689,0.711221 -0.17243,1.419155 -0.31057,2.120499 l 0.44704,0.08807 c 0.28102,-1.426932 0.42179,-2.880093 0.42176,-4.3333466 -1.8e-4,-0.3531226 -0.009,-0.7060213 -0.0264,-1.0583415 -0.005,-0.096166 -0.0101,-0.1922895 -0.0161,-0.2883624 -0.10377,-1.6576719 -0.39612,-3.3003641 -0.86367,-4.8910308 -0.0178,-0.060621 -0.0359,-0.1211664 -0.0542,-0.1816342 -0.20704,-0.6831145 -0.44646,-1.3563236 -0.7172,-2.01667079 -0.0384,-0.0937393 -0.0775,-0.18721938 -0.11718,-0.28043184 -0.6473,-1.52010307 -1.4616,-2.96902267 -2.42964,-4.31007927 z m 0.31908,2.6810972 -1.62441,0.91253968 c 0.0814,-0.24631371 0.15812,-0.49595371 0.23002,-0.74877378 0.0842,-0.3228584 0.11272,-0.5860435 0.0929,-0.7810271 0.53824,0.1042134 0.97657,0.315475 1.3015,0.6172612 z M 203.25945,-14.072029 c -0.62097,0.04069 -1.2632,0.277866 -1.87884,0.713492 0.087,0.113916 0.1728,0.228331 0.25751,0.34323 0.64252,-0.399516 1.19097,-0.599476 1.58529,-0.626404 0.3282,-0.02241 0.6137,0.04545 0.84896,0.197452 0.25717,0.161141 0.36623,0.373702 0.33867,0.630684 -1.56146,0.01986 -3.11373,0.219041 -4.62527,0.582759 -0.12566,0.03024 -0.25103,0.06161 -0.37611,0.09411 -0.405,0.105244 -0.80687,0.222322 -1.20498,0.350945 -0.0772,0.02493 -0.15417,0.05029 -0.23103,0.07608 -0.54802,0.183883 -1.08863,0.389699 -1.62023,0.616688 -0.0862,0.03682 -0.17222,0.0742 -0.25797,0.112126 -1.52095,0.672787 -2.96506,1.51982 -4.29372,2.5229855 l 0.27438,0.3634403 c 0.64819,-0.4893791 1.32464,-0.9408882 2.02456,-1.3522837 l 0.0817,0.1389967 c -0.23246,0.3532568 -0.45109,0.7102281 -0.65573,1.0699234 -0.24173,0.4227761 -0.41236,0.7923105 -0.52291,1.0941064 0.15895,0.12061 0.31673,0.242385 0.47333,0.365307 0.3217,-0.2343077 0.73957,-0.3240364 1.22919,-0.2541234 0.39401,0.059122 0.77931,0.2118069 1.15291,0.4539136 0.13361,-0.077869 0.26824,-0.1540301 0.40385,-0.2284588 l -1.30161,-2.3712837 c 0.69978,-0.3144292 1.13266,-0.2741803 1.28387,0.041323 0.12558,0.2620103 0.0436,0.4589095 -0.23567,0.6010959 -0.10195,0.051914 -0.18782,0.094263 -0.2589,0.1264433 l 0.23536,0.4459517 c 0.0635,-0.022854 0.10724,-0.040281 0.13103,-0.052618 0.27231,-0.1411791 0.46736,-0.3260243 0.58983,-0.5640562 0.13855,-0.255359 0.15667,-0.5109411 0.0424,-0.7670218 -0.13665,-0.3062174 -0.42532,-0.4879482 -0.87802,-0.5197159 -0.39789,-0.031689 -0.78613,0.053209 -1.14924,0.252526 l -0.0776,-0.1413365 c 0.53327,-0.2927248 1.07903,-0.5626028 1.63527,-0.8086878 0.084,-0.03714 0.16815,-0.07375 0.25258,-0.1098 0.21232,-0.09068 0.42611,-0.177903 0.64125,-0.26163 -0.11279,0.433995 -0.11333,0.763348 -0.0233,0.9823888 0.0751,0.1828202 0.26815,0.4005251 0.57083,0.6689382 0.30072,0.2667596 0.4812,0.4989884 0.55013,0.6811114 0.0865,0.2284186 -0.0535,0.4464729 -0.40058,0.6722054 0.036,0.1469927 0.0726,0.2938079 0.1097,0.4404424 0.68627,-0.3753877 0.97904,-0.7656945 0.81395,-1.2428085 -0.0697,-0.201434 -0.2504,-0.4661522 -0.55171,-0.7778763 -0.3051,-0.3183814 -0.49949,-0.5680414 -0.57426,-0.7664094 -0.0753,-0.199898 -0.0469,-0.49568 0.10542,-0.881207 0.11463,-0.04068 0.22961,-0.08038 0.34492,-0.119083 0.0753,-0.02526 0.15064,-0.05009 0.22616,-0.07451 0.12987,-0.04197 0.26014,-0.08269 0.39079,-0.122138 l 0.97014,3.2109313 c 0.16388,-0.049659 0.32841,-0.096928 0.49351,-0.1417723 l -0.87655,-3.237199 c 0.0671,-0.01816 0.13431,-0.03599 0.2016,-0.05348 0.12241,-0.03182 0.24512,-0.06254 0.36809,-0.09214 0.60808,-0.14638 1.22278,-0.265507 1.84191,-0.356355 l 0.15949,1.087104 c -0.25133,-0.173405 -0.42214,-0.275939 -0.48772,-0.305644 -0.17771,-0.07398 -0.38252,-0.08923 -0.6099,-0.04376 -0.2653,0.05305 -0.47294,0.168994 -0.61873,0.342279 -0.15793,0.186026 -0.20516,0.391101 -0.14957,0.61281 0.0556,0.2218 0.17204,0.380134 0.3437,0.4780349 0.17649,0.097053 0.36464,0.123242 0.57007,0.080336 0.14431,-0.030141 0.27806,-0.089501 0.40304,-0.1790449 -0.0924,-0.130047 -0.1863,-0.259453 -0.28166,-0.388197 -0.0731,0.05711 -0.14543,0.09306 -0.21717,0.108034 -0.1608,0.03357 -0.26157,-0.03868 -0.30209,-0.221174 -0.0233,-0.104754 0.004,-0.197013 0.083,-0.276147 0.0793,-0.07906 0.18209,-0.131492 0.30737,-0.156178 0.29197,-0.05753 0.64657,0.08668 1.0318,0.440614 l 0.25498,1.7380118 c 0.15078,-0.017273 0.27428,-0.030994 0.38347,-0.044441 0.88295,-0.1087438 1.54452,-0.342029 2.03995,-0.7826128 0.008,-0.00673 0.015,-0.013507 0.0224,-0.020329 0.32259,-0.294543 0.50216,-0.608932 0.51259,-0.959891 0.0141,-0.474554 -0.1575,-0.79035 -0.53504,-0.932117 -0.12237,-0.04598 -0.26571,-0.07299 -0.42887,-0.07966 -0.15353,-0.0059 -0.34524,0.02585 -0.57098,0.09848 -0.22589,0.06794 -0.39005,0.148363 -0.49191,0.235839 0.0898,0.145064 0.17774,0.290768 0.26388,0.437087 0.31083,-0.179325 0.52469,-0.265934 0.62118,-0.269053 0.38597,-0.01248 0.57534,0.174104 0.57596,0.537112 5.7e-4,0.328651 -0.22963,0.601635 -0.6606,0.8468098 -0.37723,0.2109904 -0.72974,0.3283399 -1.07965,0.3505109 -0.0702,0.00486 -0.1404,0.010146 -0.21059,0.015872 l -0.32981,-2.8295457 c 0.76616,-0.0894 1.53799,-0.135363 2.31139,-0.13596 0.20293,1.57e-4 0.40575,0.0034 0.60839,0.0098 0.12674,0.004 0.25342,0.0092 0.38001,0.01557 1.07313,0.05418 2.13985,0.194592 3.18913,0.416054 l -0.41941,1.9859912 c -0.31974,-0.7827582 -0.88533,-1.2420532 -1.63114,-1.3261412 -0.31983,-0.03606 -0.6012,0.04359 -0.83357,0.233255 -0.23286,0.190047 -0.35099,0.432199 -0.36611,0.721144 -0.0139,0.265832 0.0671,0.5056546 0.23288,0.7223057 0.17029,0.2173374 0.38316,0.3371712 0.64736,0.3654242 0.26043,0.027851 0.46102,0.017736 0.6067,-0.03713 -0.0278,-0.1664952 -0.057,-0.332966 -0.0876,-0.4993958 -0.11882,0.031216 -0.22968,0.040726 -0.33344,0.028833 -0.15125,-0.017337 -0.27595,-0.076346 -0.37647,-0.1793655 -0.0956,-0.1071286 -0.13878,-0.2323276 -0.1267,-0.3765336 0.0121,-0.144139 0.0803,-0.260481 0.20761,-0.347157 0.13177,-0.08616 0.27914,-0.120391 0.43912,-0.101774 0.34239,0.03984 0.69587,0.273927 1.02417,0.702095 0.33315,0.4238793 0.44875,0.7974831 0.38456,1.1014284 l -0.0607,0.2875965 c 0.16692,0.035344 0.33341,0.073179 0.4994,0.1134669 l 0.78865,-3.2592678 c 0.0652,0.01577 0.13036,0.03185 0.19542,0.04825 0.0795,0.02002 0.1588,0.04052 0.23802,0.06147 0.40299,0.106595 0.8028,0.225184 1.19878,0.355461 -0.46231,0.219643 -0.79281,0.428689 -0.99464,0.601421 -0.33015,0.26913 -0.53064,0.572566 -0.61773,0.8965005 -0.1478,0.5497232 -0.0798,1.0648698 0.16143,1.5464301 0.10587,0.212695 0.39414,0.3906952 0.86271,0.5622892 0.13552,0.049629 0.27001,0.065673 0.40587,0.048636 l 0.1963,-0.5021783 c -0.17787,0.055783 -0.31641,0.065735 -0.41979,0.027729 -0.38069,-0.1399522 -0.6194,-0.3431718 -0.71998,-0.6297178 -0.0809,-0.2446094 -0.0654,-0.5701827 0.0549,-0.9720312 0.10005,-0.3341375 0.3621,-0.6419945 0.80896,-0.8984335 0.42617,-0.241994 0.85363,-0.348575 1.26618,-0.322058 0.0759,0.02928 0.15168,0.05899 0.22727,0.08914 l -0.15053,0.37729 c 0.0686,0.02736 0.15847,0.06123 0.27351,0.103881 0.11993,0.03965 0.20137,0.06945 0.24098,0.08646 0.29159,0.125263 0.46485,0.3291073 0.51679,0.6012372 0.0411,0.2050799 0.0334,0.3501115 -0.0174,0.4341188 l -0.0183,0.038127 c -0.31181,-0.1864365 -0.63519,-0.2408085 -0.95506,-0.163723 -0.31895,0.072998 -0.53372,0.2649748 -0.6538,0.5638165 -0.0958,0.2384821 -0.0813,0.4824679 0.0324,0.7328667 0.11969,0.2481882 0.2933,0.4237713 0.52758,0.5331234 0.16936,0.079054 0.39317,0.1143227 0.67804,0.112909 0.0274,-0.1669007 0.0535,-0.3342237 0.0783,-0.5019523 -0.25289,-0.027023 -0.41382,-0.053983 -0.48983,-0.089651 -0.10674,-0.050084 -0.18816,-0.1335497 -0.24606,-0.2516483 -0.0579,-0.1180323 -0.0665,-0.2262412 -0.0234,-0.3246966 0.0562,-0.128206 0.17379,-0.207005 0.35512,-0.2326913 0.15891,-0.020354 0.31194,0.00429 0.45631,0.073616 0.27638,0.1327167 0.53815,0.4319539 0.75441,0.8922054 0.22743,0.4770576 0.2527,0.8335352 0.11419,1.0664078 l -0.18626,0.3131622 c 0.14743,0.087655 0.29358,0.1773979 0.43835,0.269195 l 1.79786,-2.8339163 c 0.0293,0.018585 0.0585,0.037242 0.0877,0.055971 0.11913,0.076413 0.23751,0.1540222 0.35509,0.2328151 0.50749,0.3400584 1.00029,0.7021698 1.47639,1.085379 l -0.68957,0.8567015 c -0.0438,-0.3025753 -0.0846,-0.4976515 -0.10741,-0.566062 -0.0665,-0.1808252 -0.1946,-0.3416048 -0.38255,-0.4777076 -0.21932,-0.1588149 -0.44558,-0.2325694 -0.67198,-0.2219613 -0.24401,0.010337 -0.42683,0.1149104 -0.552,0.3063701 -0.12523,0.1915401 -0.16282,0.3844654 -0.11804,0.5772171 0.0487,0.1957118 0.15772,0.3520975 0.32901,0.4739877 0.12034,0.085628 0.25499,0.1436281 0.40584,0.1746225 0.0325,-0.1564229 0.0636,-0.3134866 0.0932,-0.4711668 -0.0917,-0.014866 -0.16698,-0.043393 -0.22678,-0.085951 -0.13404,-0.095393 -0.14978,-0.2187953 -0.0432,-0.3725887 0.0612,-0.088284 0.14753,-0.1309789 0.25969,-0.1264066 0.11199,0.00453 0.22039,0.044427 0.32372,0.1196893 0.24081,0.1754169 0.37603,0.5338994 0.37848,1.0576591 l -1.10245,1.3696513 c 0.11544,0.099051 0.21005,0.1807493 0.29433,0.2517728 0.50281,0.4237323 0.97081,0.7110685 1.44948,0.8595982 0,0 0,10e-8 0,10e-8 0.18235,0.056077 0.36545,0.091985 0.55043,0.1070817 0.4363,0.036519 0.78885,-0.046743 1.05222,-0.2787707 0.46986,-0.413957 0.51866,-0.8856502 0.0816,-1.3953653 -0.0126,-0.014575 -0.0259,-0.029182 -0.0402,-0.043812 0,0 0,0 0,0 0,0 0,0 0,0 -0.0995,-0.1023549 -0.24025,-0.2062125 -0.42144,-0.3076879 -0.20373,-0.119267 -0.37423,-0.1845888 -0.50778,-0.1997183 -0.0452,0.1646423 -0.0921,0.3284016 -0.14062,0.4912474 0.34343,0.1058485 0.55267,0.2034848 0.62079,0.2720912 0.0329,0.03311 0.0617,0.066229 0.0865,0.099268 0,0 0,0 0,0 0.18043,0.2398489 0.14706,0.4700669 -0.0861,0.6882488 -0.18844,0.1763166 -0.45097,0.2255458 -0.78549,0.1657616 0,0 0,0 0,0 -0.0902,-0.016247 -0.18561,-0.040445 -0.28661,-0.072214 -0.4124,-0.1329954 -0.73934,-0.3120243 -0.99445,-0.5540359 -0.0516,-0.048358 -0.10346,-0.096423 -0.15566,-0.1441903 l 1.85174,-2.1680456 c 0.45875,0.391763 0.90056,0.8037648 1.32349,1.2350875 0.34832,0.3559862 0.68332,0.7242201 1.0046,1.1036433 l 0.34729,-0.2942327 c -0.13115,-0.1549302 -0.26454,-0.3080549 -0.40014,-0.4593065 0.27404,-0.2460252 0.39115,-0.5807891 0.3278,-1.0105087 -0.0224,-0.1617197 -0.0653,-0.3177662 -0.1286,-0.4673053 -0.10666,-0.2496605 -0.2703,-0.4806085 -0.48905,-0.6873007 -0.45171,-0.4268026 -1.06149,-0.7355026 -1.79941,-0.8906271 -0.0246,0.1412883 -0.0502,0.2821012 -0.077,0.4224228 0.72979,0.199394 1.24875,0.4646212 1.53649,0.7349888 0.23951,0.2250484 0.38419,0.4805185 0.43286,0.7562667 0.003,0.015151 0.005,0.030117 0.008,0.044899 0,0 0,0 0,0 0.04,0.2759991 -0.0437,0.4854302 -0.23986,0.6325701 -0.0652,-0.068551 -0.13096,-0.1366821 -0.19715,-0.204385 -1.01526,-1.0349262 -2.13586,-1.9606235 -3.3365,-2.7652239 -0.12012,-0.080495 -0.24104,-0.1597791 -0.36273,-0.2378387 -1.22958,-0.7887073 -2.53836,-1.4524663 -3.90019,-1.9790173 -0.0592,-0.02288 -0.11844,-0.0455 -0.1778,-0.06785 -0.68558,-0.258202 -1.38424,-0.481728 -2.09266,-0.669029 -0.0809,-0.0214 -0.162,-0.04233 -0.24319,-0.06278 -1.33041,-0.335135 -2.69375,-0.542676 -4.06833,-0.612462 -0.12947,-0.0066 -0.25905,-0.01192 -0.38871,-0.01604 -0.0738,-0.0023 -0.14754,-0.0043 -0.22135,-0.0058 0.006,-0.326152 -0.12201,-0.609403 -0.40104,-0.84192 0,0 0,0 0,0 -0.0362,-0.03003 -0.075,-0.05916 -0.11619,-0.08734 -0.35843,-0.249565 -0.7878,-0.363533 -1.26869,-0.332019 0,2.4e-5 1e-5,4.7e-5 2e-5,7.1e-5 z m 10.06784,3.651688 c 0.66919,0.309259 1.32242,0.6532014 1.95612,1.0301452 l -1.04588,1.7584157 c -0.12599,-0.5694078 -0.32524,-0.9834038 -0.56516,-1.2295953 0.23407,-0.4484674 0.14337,-0.9768573 -0.34508,-1.5589656 z m -18.84856,1.5882952 0.94344,1.607818 c -0.24749,-0.076915 -0.49836,-0.1490896 -0.75241,-0.2162135 -0.32428,-0.078077 -0.588,-0.1014552 -0.78251,-0.077756 0.093,-0.5404498 0.29571,-0.9831214 0.59148,-1.3138485 z m -7.52248,2.5161733 c -0.50986,0.6108277 -0.85332,1.5781434 -0.90503,2.8184204 0.16855,-0.028575 0.3368,-0.055088 0.5047,-0.079544 0.0809,-0.6091885 0.17626,-1.0514174 0.23666,-1.2671302 0.14108,-0.4775068 0.34839,-0.8757371 0.60766,-1.1844899 0.27322,-0.3253636 0.63964,-0.5687261 1.0865,-0.7167732 0.19462,-0.062643 0.36678,-0.091842 0.51521,-0.089914 0,0 0,0 0,0 0,0 0,0 0,0 0.2306,0.00315 0.40418,0.08087 0.52343,0.2263629 0.0216,0.024798 0.0432,0.049588 0.0648,0.074371 -0.0464,0.046399 -0.0926,0.093023 -0.13852,0.1398703 -0.0378,0.038649 -0.0754,0.077438 -0.1129,0.1163646 -0.0652,0.067729 -0.12995,0.1358754 -0.19422,0.2044337 -1.17111,1.2492378 -2.18623,2.6350918 -3.03076,4.1172126 -0.0502,0.088038 -0.0997,0.1764165 -0.14869,0.2651258 -0.70562,1.27851984 -1.28558,2.62583848 -1.73073,4.0166386 -0.0316,0.098857 -0.0626,0.1979333 -0.0929,0.2972203 -0.32777,1.0748982 -0.57532,2.1744785 -0.73849,3.2872046 -0.0158,0.1078284 -0.0308,0.2157802 -0.0451,0.323845 -0.12397,0.9418898 -0.18745,1.89236 -0.18794,2.8444595 -3e-5,1.4533125 0.14074,2.9065405 0.4218,4.3335415 l 0.44704,-0.08807 c -0.27532,-1.397701 -0.41323,-2.821572 -0.41321,-4.2454705 4e-5,-0.1144282 0.001,-0.2288383 0.003,-0.3432172 l 2.43876,0.039818 c -0.0802,0.046948 -0.15612,0.1145394 -0.22663,0.2030736 -0.0168,0.022656 -0.0401,0.056234 -0.0691,0.1003253 -0.0274,0.041778 -0.0606,0.093731 -0.0986,0.1551121 -1.26538,0.00558 -1.92948,0.4958168 -1.84886,1.5369277 0.0248,0.319777 0.12589,0.596181 0.29806,0.82186 0.19395,0.248242 0.42355,0.348981 0.68251,0.313845 0.1807,-0.02452 0.33973,-0.117955 0.48008,-0.275264 0.14045,-0.157409 0.19998,-0.331388 0.18039,-0.526793 -0.005,-0.04567 -0.0231,-0.11467 -0.055,-0.20844 -0.15418,-0.04592 -0.30821,-0.09318 -0.46208,-0.141767 0.0178,0.04558 0.029,0.09636 0.0339,0.152228 0.0225,0.255242 -0.0551,0.39363 -0.24155,0.413603 -0.13931,0.01492 -0.25831,-0.04157 -0.35563,-0.172397 -0.0814,-0.11296 -0.12977,-0.257306 -0.14304,-0.430975 -0.0225,-0.294571 0.0684,-0.533185 0.26636,-0.708788 0.17122,-0.1557013 0.39304,-0.2349837 0.66403,-0.2440345 0.25694,-0.00858 0.49311,0.066633 0.7103,0.2172232 0.2463,0.1673723 0.37696,0.3753573 0.39731,0.6325353 0.03,0.379713 -0.095,0.7606 -0.3739,1.170424 -0.25101,0.369346 -0.54666,0.652509 -0.89903,0.837589 0.12555,0.09572 0.25175,0.189493 0.37856,0.281316 0.4199,-0.291931 0.74814,-0.627696 0.99003,-1.003743 0.28054,-0.440259 0.40087,-0.874694 0.3648,-1.334595 -0.0304,-0.387424 -0.23106,-0.7329015 -0.60764,-1.0637064 0.0616,-0.1420529 0.15795,-0.2835592 0.28894,-0.4221604 0.0205,-0.021632 0.0419,-0.043189 0.0642,-0.064662 0.1872,-0.1751744 0.3557,-0.2597221 0.50011,-0.2612225 0.003,-0.1586729 0.008,-0.3173847 0.0147,-0.4760777 l -3.35313,-0.151656 c 0.0145,-0.3200401 0.0363,-0.6396564 0.0651,-0.9585661 l 3.34245,0.3022949 c 0.0154,-0.1709372 0.0333,-0.3417382 0.0536,-0.5123304 l -3.33252,-0.3968452 c 0.0106,-0.088719 0.0217,-0.177369 0.0333,-0.2659438 0.0139,-0.1058397 0.0286,-0.2115721 0.0441,-0.3171865 0.004,-0.024576 0.007,-0.049146 0.0109,-0.073709 l 1.88446,0.2830708 c 0.15318,-0.1233951 0.3075,-0.2436927 0.46287,-0.3608908 -0.45161,-0.8320152 -0.66933,-1.5259925 -0.70729,-1.9769449 0.3872,0.1997164 0.80354,0.3526172 1.2471,0.4669415 0.18832,0.048539 0.52238,0.038425 1.01762,-0.00928 -0.0245,-0.1408762 -0.0474,-0.2826391 -0.0686,-0.4252434 -0.39992,0.031693 -0.73114,0.016557 -0.9973,-0.058774 -0.28039,-0.079358 -0.65879,-0.3098224 -1.10628,-0.7103641 -0.24217,0.1066054 -0.48375,0.2185343 -0.72454,0.3357989 0.0334,0.6330692 0.17847,1.3449645 0.45659,2.098167 l -1.36566,-0.2443881 c 0.15378,-0.8595999 0.35902,-1.7098068 0.61366,-2.544871 0.0297,-0.097285 0.06,-0.1943652 0.091,-0.2912304 0.0106,-0.032999 0.0212,-0.065972 0.0319,-0.09892 l 0.38643,0.1256784 c 0.0228,-0.070165 0.0508,-0.1621318 0.0858,-0.2796509 0.0317,-0.1222805 0.056,-0.205441 0.0704,-0.2461088 0.10568,-0.2991213 0.2974,-0.4855412 0.56544,-0.5557152 0.20187,-0.054885 0.34708,-0.057098 0.43436,-0.012039 l 0.0393,0.015734 c -0.16499,0.3240467 -0.19774,0.6505315 -0.0998,0.9650618 0.0938,0.3138548 0.29935,0.5160531 0.60551,0.6164213 0.24432,0.080094 0.487,0.049387 0.72964,-0.08151 0.24003,-0.1367069 0.40401,-0.3228273 0.49769,-0.5652009 0.0677,-0.1751871 0.088,-0.4019719 0.0674,-0.6871153 -0.16845,-0.015685 -0.33722,-0.03009 -0.5063,-0.043212 -0.01,0.2548854 -0.0261,0.4179146 -0.0567,0.4964236 -0.0429,0.1103064 -0.12084,0.1975731 -0.23492,0.2635838 -0.11402,0.065948 -0.22147,0.081912 -0.3226,0.045383 -0.13168,-0.04757 -0.21811,-0.1597851 -0.25575,-0.3394367 -0.0309,-0.157511 -0.0165,-0.3121182 0.043,-0.4611486 0.11386,-0.2852895 0.39461,-0.567388 0.83895,-0.81617597 0.46034,-0.2611316 0.8144,-0.31278219 1.05643,-0.19113863 l 0.32546,0.16358171 c 0.0772,-0.15393393 0.15656,-0.30674874 0.23798,-0.45837185 L 186.25327,-1.269226 c 0.0364,-0.06769 0.0732,-0.1351877 0.11034,-0.2024899 0.048,-0.086906 0.0965,-0.1734846 0.14563,-0.2597289 0.27242,-0.4781907 0.56293,-0.9460875 0.87101,-1.4022487 0.11348,0.4653887 0.3158,0.7778922 0.58178,0.9489312 0.20801,0.133757 0.41512,0.1826958 0.61909,0.1523825 0.22126,-0.030367 0.40338,-0.1521764 0.55433,-0.3667959 0.15879,-0.2257667 0.21529,-0.4827918 0.17259,-0.7812998 0.10034,0.00698 0.19678,0.046403 0.28936,0.117471 0.19623,0.1506315 0.29235,0.3459227 0.29566,0.5838522 0.003,0.215621 -0.0709,0.4274799 -0.21931,0.6421806 -0.17556,0.2539593 -0.45941,0.4028025 -0.86438,0.4598743 -0.30561,0.039926 -0.638,0.025321 -0.9967,-0.046771 0.0268,0.1515706 0.0553,0.3021874 0.0855,0.45181922 1.09532,0.12730887 1.79781,-0.0616391 2.18162,-0.61524342 0.51752,-0.7464764 0.498,-1.3786903 -0.18872,-1.9374092 -0.27191,-0.221223 -0.50487,-0.3368562 -0.70328,-0.3437049 -0.11496,0.143863 -0.22793,0.2893175 -0.33889,0.4363009 0.046,0.093993 0.0576,0.2138706 0.0368,0.3606021 -0.0246,0.1439685 -0.0709,0.2647835 -0.14051,0.3634485 -0.11196,0.1586928 -0.25919,0.1770614 -0.44441,0.050391 -0.31051,-0.212357 -0.46126,-0.602057 -0.40776,-1.1792559 0.27175,0.1199048 0.59418,0.096713 0.97103,-0.051344 0.33524,-0.1324666 0.62828,-0.3206969 0.88764,-0.5694022 0.31991,0.5384145 0.61663,0.9077353 0.85681,1.11005 0.32116,0.2705401 0.67231,0.4148957 1.04394,0.4506257 0.0283,-0.1313196 0.0584,-0.2628051 0.0902,-0.3944193 -0.26306,-0.015579 -0.5611,-0.1629855 -0.88557,-0.4505215 -0.0489,-0.043352 -0.0931,-0.084992 -0.13234,-0.1252348 -0.19043,-0.2099076 -0.39461,-0.5880606 -0.57652,-1.1363541 -0.19783,-0.00336 -0.39666,-0.00359 -0.59642,-7.05e-4 -0.0476,0.074284 -0.0982,0.1422898 -0.15212,0.2041701 -0.37872,0.4349295 -0.74703,0.5944734 -1.14017,0.457689 0.3838,-0.4903835 0.78946,-0.9640982 1.21622,-1.4190611 0.063,-0.067156 0.12644,-0.1339029 0.19035,-0.2002347 0.0368,-0.038206 0.0738,-0.076273 0.11089,-0.1142019 0.0447,-0.045584 0.0896,-0.090953 0.13473,-0.1361043 l 2.36558,2.3622741 c 0.12159,-0.1221441 0.24517,-0.2424554 0.37065,-0.3608973 l -2.2919,-2.4327229 c 0.12484,-0.1175637 0.25114,-0.2335352 0.37884,-0.3478932 L 190.431,-7.3304339 c -0.1325,0.118638 -0.26353,0.2389805 -0.39305,0.3610055 -0.0278,-0.044411 -0.0594,-0.08555 -0.0946,-0.1229687 -0.29781,-0.3163365 -0.77433,-0.4113523 -1.43235,-0.2239011 -0.01,0.00288 -0.0201,0.00582 -0.0302,0.00883 -0.61652,0.1844189 -1.13337,0.5227731 -1.52489,0.9918367 9e-5,-8.05e-5 1.8e-4,-1.611e-4 2.8e-4,-2.416e-4 z m -1.87664,7.6084645 c 0.26347,-0.68783007 0.56124,-1.36246129 0.89205,-2.02043946 l 1.82754,0.91847123 c -0.55925,0.16684555 -0.95852,0.395071 -1.18768,0.6516936 -0.46362,-0.20265124 -0.98415,-0.0753749 -1.53191,0.45027463 z"/>
      <path id="path1039" style="fill:#ffffff;fill-opacity:1;stroke:#ffffff;stroke-width:0.079375;stroke-linecap:round;stroke-linejoin:round;stroke-miterlimit:4;stroke-dasharray:none;stroke-opacity:1" d="m 207.53903,25.695601 c -0.42347,0.06765 -0.85413,0.223958 -1.32172,0.466306 0.0551,0.07317 0.11089,0.146059 0.16732,0.218659 0.49882,-0.230089 0.86745,-0.375375 1.15095,-0.419897 0.23143,-0.03634 0.43637,-0.02404 0.61966,0.03952 0.19897,0.06613 0.30594,0.175774 0.31492,0.33466 -1.1617,0.240991 -2.34544,0.366204 -3.53065,0.364393 -0.009,1.3e-5 -0.0176,2e-5 -0.0264,1.9e-5 -0.0993,-6e-6 -0.19867,-9.05e-4 -0.29797,-0.0027 -0.32122,-0.0058 -0.6422,-0.0208 -0.96252,-0.04486 -0.0622,-0.0047 -0.12441,-0.0097 -0.18657,-0.01505 -0.44222,-0.03809 -0.88303,-0.09335 -1.32136,-0.165196 -0.0712,-0.01167 -0.14235,-0.02378 -0.21342,-0.03632 -1.25908,-0.222213 -2.49611,-0.580946 -3.6853,-1.062114 l -0.10446,0.258369 c 0.60152,0.243321 1.21516,0.455784 1.83773,0.635648 l -0.0273,0.09451 c -0.32651,0.02473 -0.65643,0.04068 -0.98922,0.04765 -0.39919,0.0075 -0.71567,0.0123 -0.98492,0.02539 0.003,0.127151 0.007,0.254446 0.0116,0.381876 0.34569,0.133678 0.65304,0.347246 0.93747,0.647203 0.2266,0.241896 0.40923,0.506937 0.5458,0.7983 0.15652,0.04456 0.31359,0.08728 0.47117,0.128141 l 0.41587,-1.600886 c 0.60782,0.196176 0.90194,0.374333 0.85739,0.590655 -0.0356,0.172631 -0.19431,0.233265 -0.47693,0.168472 -0.10187,-0.02335 -0.18756,-0.04539 -0.25582,-0.06489 l -0.073,0.299581 c 0.0605,0.02056 0.1033,0.03359 0.12807,0.03945 0.28576,0.06754 0.53917,0.06927 0.75312,0.0096 0.2362,-0.06132 0.36694,-0.179814 0.39716,-0.348162 0.0365,-0.203241 -0.0984,-0.398619 -0.38912,-0.598636 -0.2548,-0.178232 -0.54034,-0.306733 -0.86421,-0.390916 l 0.0247,-0.0952 c 0.46985,0.122143 0.94424,0.225726 1.42185,0.310015 0.0722,0.01274 0.14444,0.02504 0.21677,0.03689 0.18145,0.02974 0.36334,0.0567 0.54559,0.08082 -0.23761,0.193699 -0.3719,0.3574 -0.3937,0.502283 -0.0177,0.11793 0.0372,0.300121 0.17324,0.540329 0.13661,0.241175 0.20199,0.41867 0.18722,0.538456 -0.018,0.145871 -0.2366,0.221391 -0.65891,0.201873 -0.0378,0.08658 -0.0759,0.17306 -0.11428,0.259447 0.83886,0.0845 1.26771,-0.07145 1.29619,-0.369422 0.0126,-0.131661 -0.0534,-0.323857 -0.18997,-0.58359 -0.13559,-0.261363 -0.19113,-0.458821 -0.17566,-0.585594 0.016,-0.131194 0.14648,-0.275756 0.38299,-0.444084 0.0964,0.0099 0.19297,0.01909 0.28957,0.02743 0.0632,0.0055 0.12635,0.01056 0.18957,0.01533 0.10849,0.0082 0.21707,0.01534 0.32571,0.02147 l -0.11698,2.05061 c 0.18094,0.01056 0.36214,0.01865 0.54355,0.02423 l 0.0594,-2.054265 c 0.0555,0.0016 0.111,0.0029 0.16651,0.0039 0.10095,0.0019 0.20192,0.0028 0.30291,0.0029 0.009,5e-6 0.0179,3e-6 0.0268,-6e-6 0.49006,4.93e-4 0.97974,-0.02028 1.46765,-0.06157 l 0.057,0.670537 c -0.21017,-0.11291 -0.33297,-0.179433 -0.39033,-0.202993 -0.14178,-0.05397 -0.30784,-0.07661 -0.50154,-0.06967 -0.22595,0.0081 -0.41469,0.05233 -0.56901,0.135872 -0.0228,0.01221 -0.044,0.02485 -0.0638,0.03793 0,0 0,0 0,0 -0.12454,0.08258 -0.18899,0.183207 -0.19027,0.304346 -0.001,0.136885 0.0611,0.247828 0.19027,0.330443 0,0 0,0 0,0 0.003,0.002 0.006,0.0039 0.009,0.0058 0.13948,0.08278 0.31024,0.122693 0.51,0.116882 0.14025,-0.0041 0.27603,-0.02999 0.40512,-0.07665 -0.068,-0.08526 -0.13506,-0.170906 -0.20126,-0.256929 -0.074,0.02875 -0.14501,0.04395 -0.21196,0.04588 -0.15096,0.0043 -0.2264,-0.05247 -0.2282,-0.166685 -10e-4,-0.06585 0.0394,-0.117513 0.12059,-0.156548 0.0814,-0.03905 0.177,-0.06025 0.28751,-0.06455 0.25813,-0.01004 0.5385,0.09771 0.85931,0.319941 l 0.0911,1.072104 c 0.15822,-0.0108 0.29556,-0.02298 0.40924,-0.03512 0.95743,-0.102193 1.65863,-0.382238 2.08418,-0.75889 0.2779,-0.245081 0.38362,-0.476364 0.33297,-0.683627 -0.0922,-0.377388 -0.41609,-0.501082 -0.9661,-0.4185 -0.12857,0.01958 -0.28453,0.06493 -0.47076,0.13438 -0.18681,0.06664 -0.32281,0.12891 -0.40917,0.190786 0.0803,0.08203 0.16157,0.163536 0.24376,0.244518 0.27333,-0.141851 0.44476,-0.223544 0.53159,-0.239895 0.33056,-0.06225 0.51962,0.0077 0.56691,0.226562 0.0419,0.193749 -0.13061,0.410161 -0.53809,0.626528 -0.35558,0.186489 -0.71625,0.29726 -1.07101,0.332639 -0.0714,0.0074 -0.14288,0.01445 -0.21438,0.02109 l -0.19499,-1.733244 c 0.77083,-0.08652 1.53608,-0.22389 2.29026,-0.409099 0.0981,-0.02409 0.19603,-0.049 0.29376,-0.0747 0.82768,-0.217722 1.64105,-0.493047 2.43274,-0.82195 l 0.47695,1.148602 c -0.57943,-0.224721 -1.1529,-0.232691 -1.76773,-0.03537 -0.26491,0.08502 -0.47164,0.211283 -0.62466,0.384951 -0.15276,0.173392 -0.21013,0.344358 -0.16471,0.51581 0.0416,0.157213 0.16495,0.274628 0.37365,0.34703 0.21267,0.07114 0.45316,0.06695 0.71519,-0.01575 0.25746,-0.08125 0.44503,-0.169681 0.56087,-0.258337 -0.0818,-0.07586 -0.16303,-0.152146 -0.24358,-0.228855 -0.0962,0.06294 -0.19372,0.110136 -0.29173,0.141761 -0.14296,0.04613 -0.27469,0.05656 -0.39346,0.03272 -0.11565,-0.02782 -0.1857,-0.08492 -0.21066,-0.169856 -0.025,-0.08505 0.007,-0.17167 0.0937,-0.260518 0.0906,-0.09015 0.2045,-0.15674 0.34301,-0.201657 0.2972,-0.09638 0.65263,-0.102393 1.08431,-0.02852 0.43434,0.06964 0.69419,0.182068 0.76767,0.359019 l 0.0691,0.166472 c 0.16663,-0.06911 0.33236,-0.140367 0.49715,-0.213732 L 212.35071,25.3706 c 0.0488,-0.02177 0.0976,-0.04375 0.14627,-0.06594 0.0597,-0.02721 0.11923,-0.05472 0.17864,-0.08254 0.302,-0.141429 0.60036,-0.290759 0.89464,-0.447754 -0.16151,0.334181 -0.27352,0.58395 -0.3271,0.76524 -0.0921,0.284382 -0.0998,0.519725 -0.0118,0.705943 0.14863,0.31467 0.44624,0.503611 0.90473,0.541307 0.19867,0.0168 0.54295,-0.09667 1.00744,-0.361795 0.13459,-0.07683 0.24654,-0.16612 0.33591,-0.266182 l -0.16933,-0.283446 c -0.0902,0.1372 -0.18589,0.233969 -0.28443,0.290376 -0.36403,0.208386 -0.6674,0.283002 -0.897,0.234201 -0.19396,-0.04501 -0.34624,-0.184294 -0.46198,-0.414338 -0.0968,-0.192448 -0.0616,-0.458658 0.0868,-0.803277 0.14265,-0.327362 0.32774,-0.600558 0.56054,-0.826274 0.0559,-0.03308 0.11161,-0.06645 0.16716,-0.100098 l 0.12892,0.212806 c 0.0513,-0.03107 0.11996,-0.07473 0.20351,-0.130057 0.0866,-0.06071 0.14289,-0.09989 0.17422,-0.119878 0.22012,-0.140463 0.4226,-0.194272 0.61428,-0.158696 0.14516,0.02566 0.23174,0.06414 0.25953,0.118194 l 0.0146,0.02111 c -0.27194,0.164262 -0.47354,0.356115 -0.60906,0.584182 -0.13687,0.225324 -0.15874,0.421387 -0.0559,0.590265 0.0817,0.134135 0.23835,0.199024 0.47175,0.18744 0.23537,-0.01632 0.46598,-0.09959 0.68655,-0.249124 0.15891,-0.107727 0.32167,-0.269296 0.48192,-0.484571 -0.10017,-0.04912 -0.19986,-0.09884 -0.29907,-0.149153 -0.15595,0.177977 -0.27171,0.289762 -0.33847,0.335197 -0.096,0.06529 -0.19968,0.103784 -0.31023,0.114886 -0.11063,0.01114 -0.18397,-0.01163 -0.21968,-0.06679 -0.0467,-0.07217 -0.0254,-0.172293 0.0604,-0.301185 0.0766,-0.112503 0.17432,-0.20993 0.29471,-0.293274 0.2311,-0.159994 0.55192,-0.277282 0.97319,-0.370106 0.43769,-0.09851 0.70997,-0.09646 0.81493,0.03188 l 0.14114,0.172557 c 0.13965,-0.11433 0.27783,-0.230484 0.41448,-0.348436 l -1.34099,-1.555076 c 0.021,-0.01808 0.0419,-0.0362 0.0628,-0.05438 0.0852,-0.07414 0.1698,-0.149046 0.25365,-0.224708 0.36202,-0.326638 0.71098,-0.667367 1.04552,-1.021444 l 0.48903,0.46203 c -0.23185,0.05572 -0.36726,0.08756 -0.42566,0.108235 -0.14152,0.05429 -0.28088,0.148739 -0.42036,0.283255 -0.16271,0.156917 -0.27339,0.315998 -0.33204,0.481164 -0.0638,0.177424 -0.0517,0.318109 0.0412,0.423154 0.0927,0.104838 0.2163,0.1451 0.37195,0.116334 0.15857,-0.03155 0.31216,-0.115998 0.45649,-0.2532 0.10131,-0.09632 0.18437,-0.205395 0.24923,-0.325966 -0.10738,-0.01825 -0.21436,-0.03733 -0.32094,-0.05723 -0.0358,0.07067 -0.0779,0.128763 -0.12635,0.174789 -0.10914,0.103744 -0.20351,0.112355 -0.28114,0.02876 -0.0447,-0.04819 -0.0493,-0.113496 -0.015,-0.196707 0.0344,-0.08334 0.0913,-0.16288 0.1706,-0.239781 0.18531,-0.179658 0.46591,-0.286253 0.85303,-0.333969 l 0.7819,0.738728 c 0.11065,-0.113073 0.20486,-0.213272 0.28159,-0.297841 0.64598,-0.712062 0.98538,-1.389531 1.05246,-1.955529 0.0444,-0.369053 -0.0313,-0.612406 -0.20775,-0.73299 -0.32137,-0.219621 -0.64534,-0.09469 -1.00046,0.333439 -0.0829,0.100351 -0.16859,0.237564 -0.26136,0.413472 -0.0951,0.174174 -0.15558,0.311736 -0.17888,0.415423 0.11457,0.0078 0.22952,0.01455 0.34483,0.02028 0.1097,-0.287934 0.18329,-0.463218 0.23722,-0.533304 0.20531,-0.266817 0.39307,-0.341046 0.5745,-0.209331 0.16061,0.116592 0.1761,0.393479 0.0155,0.827003 -0.14168,0.376446 -0.33768,0.699312 -0.57893,0.961521 -0.0484,0.05302 -0.097,0.105774 -0.14598,0.158248 l -1.2992,-1.163739 c 0.58511,-0.653297 1.12202,-1.349088 1.6028,-2.083034 l -0.23324,-0.153093 c -0.0854,0.130493 -0.17259,0.259768 -0.26157,0.387798 -0.18582,-0.129426 -0.41369,-0.129884 -0.68421,-0.01559 -0.27349,0.112882 -0.50876,0.295424 -0.71761,0.552019 -0.27032,0.332124 -0.48819,0.736287 -0.67593,1.229631 0.0899,0.0177 0.18007,0.03478 0.27054,0.05123 0.21904,-0.504426 0.39798,-0.85908 0.57939,-1.080682 0.1483,-0.181155 0.30909,-0.30827 0.48788,-0.382769 0.19217,-0.08302 0.34497,-0.07249 0.45773,0.04005 -0.7022,0.951113 -1.50346,1.829134 -2.38335,2.6229 -0.0826,0.07452 -0.16591,0.148299 -0.24988,0.221325 -0.84873,0.738066 -1.76653,1.399332 -2.73593,1.974261 -0.0422,0.02501 -0.0844,0.04986 -0.12682,0.07454 -0.48852,0.284627 -0.98983,0.547423 -1.50174,0.787185 -0.0585,0.02742 -0.11722,0.05454 -0.17604,0.08135 -0.96289,0.438998 -1.96203,0.796775 -2.98295,1.065431 -0.0962,0.02533 -0.1927,0.04987 -0.28932,0.0736 -0.055,0.01352 -0.11014,0.02678 -0.1653,0.03979 -0.0518,-0.220108 -0.2214,-0.37244 -0.50002,-0.467657 -0.27985,-0.09823 -0.57777,-0.11888 -0.90479,-0.06664 0,0 4e-5,4.7e-5 4e-5,4.7e-5 z m 7.71012,-1.930004 c 0.48922,-0.329112 0.96304,-0.680746 1.41907,-1.053592 l 0.79251,0.968923 c -0.45674,0.03713 -0.8143,0.106678 -1.08669,0.225638 -0.18639,-0.25272 -0.56126,-0.282767 -1.12489,-0.140969 z m -15.38006,2.92918 -0.31547,1.095577 c -0.13298,-0.160224 -0.26246,-0.321731 -0.38843,-0.484414 -0.16588,-0.205374 -0.3113,-0.359337 -0.44323,-0.462784 0.40224,-0.117612 0.78107,-0.167568 1.14713,-0.148379 z m -10.08954,-8.186948 -0.23323,0.153094 c 0.064,0.09771 0.12901,0.19475 0.19499,0.2911 l -1.69518,1.162759 c 0.0173,0.03932 0.10304,0.173544 0.25765,0.387108 0.3741,0.516754 0.79832,0.906649 1.24448,1.16619 0.53442,0.312712 0.93281,0.324512 1.18239,0.08949 0.12285,-0.115691 0.16241,-0.278976 0.12544,-0.488505 -0.037,-0.209885 -0.14106,-0.411173 -0.31147,-0.611482 -0.23611,-0.277541 -0.45492,-0.463529 -0.67086,-0.555462 -0.0309,0.114389 -0.0608,0.229389 -0.0897,0.344983 0.21718,0.1357 0.36064,0.240918 0.43265,0.326698 0.2188,0.26065 0.24937,0.464526 0.0754,0.61888 -0.14592,0.129485 -0.42753,0.07315 -0.83275,-0.202082 -0.33787,-0.229722 -0.62158,-0.502236 -0.84507,-0.808315 l 1.41106,-1.027958 c 0.45654,0.627433 0.95504,1.223899 1.49001,1.786393 0.0492,0.0517 0.0986,0.103108 0.14842,0.154228 0.0705,0.07236 0.14153,0.144145 0.2132,0.215341 l -1.44681,1.456084 c 0.12797,0.127215 0.25759,0.252712 0.38881,0.376463 l 1.40795,-1.494 c 0.0678,0.06387 0.13608,0.127234 0.20484,0.190085 0.0469,0.04284 0.094,0.08544 0.14129,0.127806 0.43548,0.389901 0.88962,0.7595 1.36008,1.107519 l -0.0585,0.07913 c -0.31502,-0.09068 -0.62999,-0.190599 -0.94439,-0.299934 -0.37655,-0.131819 -0.6753,-0.237806 -0.93177,-0.319371 -0.0415,0.120145 -0.0823,0.240753 -0.12222,0.361814 0.2773,0.245917 0.49103,0.553223 0.65305,0.933693 0.12806,0.305869 0.20673,0.61811 0.23284,0.939044 0.13102,0.0964 0.26316,0.191273 0.39637,0.284598 l 0.94949,-1.35633 c 0.50188,0.396545 0.71496,0.667123 0.59722,0.854299 -0.094,0.149443 -0.26402,0.1505 -0.50611,-0.0092 -0.0873,-0.05757 -0.15986,-0.108201 -0.21703,-0.150369 l -0.17331,0.255463 c 0.0495,0.04043 0.085,0.06762 0.10615,0.08177 0.24401,0.163272 0.48062,0.253662 0.70195,0.272788 0.24272,0.0254 0.40694,-0.03961 0.49461,-0.186786 0.10582,-0.177651 0.0484,-0.408385 -0.15427,-0.69822 -0.17653,-0.256732 -0.39967,-0.47739 -0.67429,-0.66958 l 0.0565,-0.08065 c 0.3952,0.276566 0.80103,0.538229 1.21617,0.784273 0.0667,0.03951 0.13357,0.07862 0.20071,0.117319 0.0826,0.04761 0.16553,0.0946 0.24882,0.140972 l -0.99983,1.795715 c 0.15738,0.08763 0.31588,0.173243 0.47544,0.256822 l 0.95379,-1.820494 c 0.13905,0.07286 0.27899,0.144007 0.41977,0.213427 l 0.12327,-0.250041 c -0.36676,-0.180874 -0.72772,-0.373657 -1.08204,-0.577895 -0.0662,-0.03814 -0.1321,-0.07668 -0.1978,-0.115611 -1.04705,-0.620522 -2.03395,-1.341742 -2.93871,-2.151656 -0.0466,-0.04172 -0.093,-0.08368 -0.13918,-0.125877 -0.25929,-0.236947 -0.51161,-0.481265 -0.75643,-0.732664 -0.049,-0.05034 -0.0977,-0.100963 -0.14615,-0.151867 -0.7175,-0.754365 -1.36802,-1.570569 -1.93763,-2.441018 z m 3.90112,5.12918 -0.67803,0.917515 c -0.0686,-0.196661 -0.13368,-0.393288 -0.19505,-0.589776 -0.0839,-0.250392 -0.16659,-0.445465 -0.2542,-0.588394 0.41796,0.02992 0.79058,0.114967 1.12728,0.260655 z"/>
      <g id="g13885">
        <path d="m 199.60531,8.7371352 c 0,-2.7828589 2.25596,-5.038825 5.03882,-5.038825 2.78286,0 5.03882,2.2559661 5.03882,5.038825 0,2.7828588 -2.25596,5.0388248 -5.03882,5.0388248 -2.78286,0 -5.03882,-2.255966 -5.03882,-5.0388248 z" fill="#4472c4" fill-rule="evenodd" id="path14193" style="fill:#dd0029;fill-opacity:1;stroke-width:0.020995"/>
        <path d="m 199.24768,8.7371352 c 0,-2.9803723 2.41608,-5.3964555 5.39645,-5.3964555 2.98037,0 5.39645,2.4160832 5.39645,5.3964555 0,2.9803718 -2.41608,5.3964558 -5.39645,5.3964558 -2.98037,0 -5.39645,-2.416084 -5.39645,-5.3964558 z" fill="#4472c4" fill-rule="evenodd" id="path26857" style="display:inline;fill:#dd0029;fill-opacity:1;stroke-width:0.0224851"/>
        <path id="path18674" style="fill:#f2f302;fill-opacity:1;stroke:none;stroke-width:0.168959px;stroke-linecap:butt;stroke-linejoin:miter;stroke-opacity:1" d="m 773.62305,15.613281 c -1.32031,0.898779 -2.99122,2.067065 -4.31836,3.603516 -2.1831,2.527435 -0.9706,6.905973 1.21484,9.460937 1.03627,1.211494 2.05157,2.625864 2.93945,4.34375 -0.34318,-0.03156 -0.68573,-0.04767 -1.02343,-0.04492 -1.96917,0.01576 -3.80136,0.644266 -4.97071,2.230469 -0.32617,0.442508 -0.51562,1.297176 -0.51562,1.847657 v 14.96875 h 2.0664 v 1.28906 h 10.375 v -1.289062 h 2.42579 v -13.9375 c -0.034,-1.33054 -1.85355,-2.916119 -4.23829,-3.964844 1.05207,-1.076484 1.95326,-2.323196 2.25196,-3.707032 0.43018,-1.992861 0.20481,-3.717756 -1.58203,-5.908203 -2.14284,-2.626862 -3.92447,-5.652487 -4.625,-8.892578 z m -0.15235,19.521485 c 0.32353,-0.0032 0.64662,0.01051 0.96289,0.03906 0.15988,0.406403 0.31254,0.827409 0.45703,1.263672 0.3772,-0.291228 0.7861,-0.613623 1.20313,-0.960938 2.33072,0.643561 3.04174,1.896822 2.94336,2.648438 -0.11717,0.894815 -1.17165,1.943249 -4.41992,1.671875 -2.45212,-0.20485 -5.45867,-1.865912 -4.86914,-3.226563 0.42187,-0.973658 2.06148,-1.418726 3.72265,-1.435546 z" transform="scale(0.26458332)"/>
        <path id="path13998" style="fill:#ffffff;fill-opacity:1;fill-rule:evenodd;stroke-width:0.00894537" d="m 204.64411,-2.5828914 -3.32676,6.7410203 -7.43917,1.0809242 5.38306,5.2471099 -1.27084,7.409045 6.65371,-3.498161 6.6538,3.498161 -1.27083,-7.409045 5.38306,-5.2471099 -7.43917,-1.0809242 z m 0,6.2812344 c 2.78286,0 5.03888,2.2559241 5.03888,5.0387833 0,2.7828587 -2.25602,5.0388697 -5.03888,5.0388697 -2.78286,0 -5.03878,-2.256011 -5.03878,-5.0388697 0,-2.7828592 2.25592,-5.0387833 5.03878,-5.0387833 z"/>
      </g>
      <path id="path13928" style="fill:#ffffff;fill-opacity:1;stroke:#ffffff;stroke-width:0.0396875;stroke-linejoin:round;stroke-miterlimit:4;stroke-dasharray:none;stroke-opacity:1" d="m 218.51223,26.42953 c 0.12548,0.159242 0.12091,0.395145 -0.0285,0.705314 -0.1473,0.305318 -0.38913,0.577569 -0.72187,0.805539 -0.39291,0.269192 -0.7674,0.399754 -1.10618,0.398143 -0.31528,-0.0024 -0.53339,-0.115382 -0.65882,-0.32752 -0.11475,-0.194062 -0.10106,-0.429711 0.0289,-0.708403 0.14012,-0.293854 0.37394,-0.546778 0.70475,-0.772355 0.38976,-0.265771 0.74304,-0.403585 1.07974,-0.406854 0.29997,-0.0035 0.53547,0.09486 0.70195,0.306136 z m -0.5054,0.227975 c -0.0858,-0.114549 -0.24311,-0.152845 -0.47089,-0.121774 -0.22471,0.02871 -0.4424,0.116513 -0.65858,0.263461 -0.21613,0.146921 -0.35964,0.312024 -0.43139,0.501431 -0.0632,0.172268 -0.0578,0.321042 0.0204,0.446368 0.0793,0.127129 0.22197,0.195725 0.42977,0.20075 0.22207,0.0043 0.45351,-0.07287 0.68785,-0.233151 0.24485,-0.167469 0.40367,-0.362146 0.47559,-0.576629 0.0622,-0.192599 0.0429,-0.352686 -0.0528,-0.480456 z m -2.5293,1.717813 c 0.13823,0.249395 0.1228,0.521188 -0.0606,0.813118 -0.19353,0.307914 -0.5434,0.589677 -1.04791,0.822423 -0.52051,0.240125 -1.03104,0.333138 -1.50963,0.284846 -0.39861,-0.04054 -0.74818,-0.174273 -1.04632,-0.393837 0.12311,-0.09126 0.24495,-0.183541 0.36548,-0.276819 0.61242,0.446802 1.3351,0.509258 2.10449,0.153584 0.30576,-0.141345 0.53331,-0.323691 0.68006,-0.539033 0.14963,-0.219714 0.17986,-0.407739 0.099,-0.561681 -0.0237,-0.045 -0.0649,-0.08341 -0.12359,-0.115572 -0.32859,0.260374 -0.66616,0.512835 -1.01224,0.756861 -0.1609,0.0081 -0.32135,0.01442 -0.48133,0.01895 l -0.38167,-0.883201 c 0.14759,-0.06244 0.29449,-0.126492 0.44069,-0.192138 l 0.35242,0.769022 c 0.36588,-0.256862 0.72221,-0.523279 1.0684,-0.798628 0.14437,-0.0053 0.28918,-0.01219 0.43438,-0.02057 0.0424,0.0429 0.0819,0.09714 0.11825,0.16274 4e-5,-2.3e-5 7e-5,-4.6e-5 1e-4,-6.8e-5 z m -3.99749,2.001786 c 0.0682,0.21084 -0.0661,0.436065 -0.41863,0.661797 -0.28745,0.185923 -0.66328,0.340965 -1.12248,0.452128 -0.0976,-0.08347 -0.19429,-0.167517 -0.29012,-0.252123 0.15332,-0.09031 0.21598,-0.188401 0.19082,-0.291704 -0.0143,-0.0589 -0.0848,-0.09123 -0.21085,-0.09886 -0.10468,-0.0077 -0.2156,0.0016 -0.33351,0.02755 -0.10164,0.02239 -0.19089,0.0624 -0.26838,0.120491 -0.0739,0.05485 -0.1057,0.109273 -0.0947,0.16389 0.021,0.104168 0.12699,0.161342 0.31926,0.167266 -0.0905,0.09364 -0.18222,0.18676 -0.27503,0.279338 -0.13068,0.0014 -0.25863,-0.02963 -0.38267,-0.09295 -0.12444,-0.06568 -0.19204,-0.133958 -0.20424,-0.202959 -0.0266,-0.150371 0.0487,-0.291953 0.2207,-0.428013 0.17173,-0.138549 0.39661,-0.236582 0.67754,-0.299184 0.23276,-0.05187 0.45026,-0.05946 0.65603,-0.02152 0.20563,0.03792 0.32586,0.115404 0.35823,0.237289 0.023,0.08648 3.7e-4,0.189166 -0.0698,0.307346 0.53616,-0.138838 0.76059,-0.344378 0.68972,-0.583367 -0.0399,-0.134608 -0.24796,-0.21227 -0.61874,-0.246912 -0.0697,-0.0061 -0.44426,-0.01074 -1.1094,-0.05877 -0.45322,-0.03272 -0.75781,-0.102042 -0.90924,-0.186425 0.14087,-0.06998 0.2806,-0.141337 0.41915,-0.214028 0.17529,0.09414 0.50207,0.156071 0.97512,0.163584 0.61663,0.007 0.9581,-0.0011 1.1255,0.01686 0.37718,0.03885 0.60468,0.159726 0.67572,0.37927 z m -3.81089,0.979858 c 0.0274,0.188635 -0.096,0.363747 -0.37919,0.516517 -0.25855,0.139781 -0.58581,0.229891 -0.9768,0.262183 -0.38674,0.03194 -0.72895,-0.0016 -1.0197,-0.09437 -0.32184,-0.106294 -0.48043,-0.258146 -0.48379,-0.443843 -0.002,-0.113886 0.0675,-0.210396 0.20624,-0.291685 0.13881,-0.08134 0.31223,-0.126129 0.52231,-0.13692 0.34168,-0.01755 0.60417,0.04979 0.79422,0.211011 -0.12141,0.07362 -0.24397,0.146266 -0.36767,0.217911 -0.0956,-0.100171 -0.2175,-0.14552 -0.36765,-0.137508 -0.12921,0.0069 -0.19243,0.04687 -0.18908,0.121967 0.005,0.103656 0.11351,0.184613 0.32946,0.237446 0.18539,0.04245 0.38953,0.05498 0.61028,0.0362 0.19532,-0.01661 0.36775,-0.07384 0.51503,-0.170082 0.14737,-0.09629 0.21363,-0.19607 0.20171,-0.296844 -0.0233,-0.197087 -0.33377,-0.372114 -0.9081,-0.559116 -0.41576,-0.136841 -0.86382,-0.254646 -1.34925,-0.361916 0.1063,-0.07584 0.21148,-0.152474 0.31552,-0.229868 0.67793,0.1611 1.19131,0.282797 1.57953,0.413401 0.5949,0.199899 0.92595,0.422873 0.96693,0.705512 0,0 0,2e-6 0,2e-6 z m -9.24646,-1.958596 -0.11813,0.411724 c -0.1415,-0.194333 -0.27036,-0.339418 -0.39069,-0.435256 -0.15712,-0.125056 -0.36887,-0.230879 -0.63826,-0.324213 -0.24686,-0.08553 -0.49358,-0.146496 -0.74347,-0.183106 -0.2665,-0.03782 -0.4899,-0.03909 -0.672,3.93e-4 0.018,0.08217 0.0365,0.164377 0.0554,0.246604 0.15395,0.07363 0.25493,0.136732 0.3033,0.192207 0.0519,0.05674 0.0619,0.126815 0.0296,0.210352 -0.027,0.06986 -0.10517,0.137137 -0.23683,0.199647 0.0492,0.08964 0.0993,0.179151 0.15002,0.268524 0.72721,0.06568 1.38557,0.101966 1.92765,0.129094 0.0823,0.08185 0.0809,0.275622 -0.006,0.580402 -0.0265,0.09295 -0.0661,0.210601 -0.11981,0.351163 -0.0491,0.139825 -0.0769,0.220447 -0.0837,0.243995 0.16953,0.04864 0.33959,0.09541 0.51015,0.140313 l 0.44093,-1.674634 c 0.0736,0.01937 0.14721,0.03837 0.22096,0.05698 0.0678,0.01712 0.13572,0.03392 0.20369,0.0504 1.21364,0.29425 2.45158,0.486454 3.69629,0.570746 l 0.016,-0.235633 c -1.23113,-0.08333 -2.45585,-0.273509 -3.65663,-0.564659 -0.0673,-0.01631 -0.13443,-0.03293 -0.20153,-0.04987 -0.22988,-0.05803 -0.45885,-0.119772 -0.68678,-0.185175 z m -1.1932,-0.08707 c 0.1401,0.04825 0.27319,0.1219 0.40152,0.221733 0.13218,0.101084 0.21299,0.194019 0.2414,0.281344 -0.42269,-0.01823 -0.84766,-0.04874 -1.27416,-0.0918 0.0616,-0.03671 0.10186,-0.08011 0.12007,-0.130158 0.0465,-0.127787 -0.0376,-0.261092 -0.24522,-0.405196 0.28218,0.0068 0.53294,0.04712 0.75643,0.124086 -1e-5,-5e-6 -2e-5,-9e-6 -4e-5,-1.3e-5 z m 3.81278,0.981233 c -0.24559,-0.03842 -0.45945,-0.04303 -0.64574,-0.01115 -0.21585,0.03857 -0.33798,0.118394 -0.36323,0.244459 -0.0214,0.106663 0.0298,0.215735 0.15606,0.326059 0.13075,0.108659 0.2974,0.181085 0.49835,0.214582 0.0986,-0.05962 0.1964,-0.119867 0.29344,-0.180737 -0.10318,-0.0062 -0.1987,-0.03402 -0.28628,-0.08312 -0.0831,-0.05082 -0.11971,-0.103874 -0.11015,-0.15866 0.0184,-0.105533 0.16362,-0.132593 0.4356,-0.09028 0.26042,0.04051 0.48417,0.131759 0.67635,0.277425 0.19636,0.143654 0.28944,0.285481 0.27369,0.430162 -0.0173,0.158491 -0.13962,0.282782 -0.37192,0.366409 -0.23205,0.08352 -0.50482,0.102821 -0.81233,0.05423 -0.50969,-0.08055 -0.9853,-0.438843 -1.37545,-1.066484 -0.11164,0.0441 -0.22399,0.08738 -0.33704,0.129824 0.2199,0.329227 0.43888,0.574463 0.64482,0.735256 0.31916,0.245945 0.7162,0.409649 1.181,0.479986 0.48174,0.0729 0.87097,0.03377 1.15464,-0.102272 0.26667,-0.128626 0.40627,-0.321915 0.42785,-0.572422 0.0181,-0.210478 -0.12729,-0.408926 -0.42373,-0.606282 -0.29252,-0.199583 -0.62788,-0.326273 -1.01589,-0.386968 -2e-5,-3e-6 -3e-5,-6e-6 -4e-5,-8e-6 z m -3.71697,-2.202384 c -0.48926,-0.176414 -0.90755,-0.267373 -1.27404,-0.261191 -0.40111,0.0037 -0.66701,0.128487 -0.78997,0.395117 -0.0736,-0.03394 -0.14705,-0.06829 -0.22028,-0.103047 -0.0589,-0.02796 -0.11772,-0.05618 -0.17638,-0.08467 -0.33418,-0.162256 -0.66418,-0.332968 -0.9895,-0.511978 -0.0467,-0.0257 -0.0933,-0.05157 -0.13984,-0.07762 -0.97396,-0.545306 -1.90514,-1.165395 -2.78056,-1.855929 l -0.14623,0.185575 c 0.11363,0.08796 0.22814,0.17474 0.34352,0.26034 -0.0629,0.116324 -0.0618,0.213072 0.003,0.28827 0.1222,0.132997 0.24814,0.265758 0.37763,0.398462 0.17465,0.188258 0.24571,0.308725 0.20764,0.364783 -0.0568,0.08357 -0.1967,0.05198 -0.41558,-0.102558 -0.21512,-0.151877 -0.38067,-0.320392 -0.49556,-0.501091 l -0.14203,0.188212 c 0.0177,0.05871 0.0834,0.148122 0.19831,0.265243 0.0997,0.102961 0.19418,0.185618 0.28249,0.248034 0.16312,0.115291 0.33654,0.194622 0.51746,0.237173 0.18438,0.04485 0.31993,0.03259 0.40609,-0.03246 0.0882,-4.59e-4 0.16801,0.02246 0.24044,0.06838 0.0794,0.05033 0.13492,0.116005 0.1661,0.197913 0.0347,0.08404 0.0325,0.157917 -0.007,0.22193 l -0.0455,0.07444 c -0.71618,-0.452327 -1.13211,-0.604413 -1.2898,-0.376772 -0.0551,0.07949 -0.0413,0.177734 0.0444,0.294499 0.0855,0.11657 0.2174,0.23253 0.3945,0.344254 0.11506,-0.02066 0.22962,-0.04219 0.34369,-0.06458 -0.0851,-0.03944 -0.15937,-0.08007 -0.22329,-0.121438 -0.14949,-0.09675 -0.19801,-0.164477 -0.14867,-0.201082 0.0837,-0.05777 0.27612,0.01494 0.58535,0.208012 0.13862,0.08655 0.24389,0.187001 0.31627,0.303692 0.0737,0.114611 0.0863,0.206292 0.0358,0.274946 -0.12856,0.177412 -0.52811,0.0866 -1.16742,-0.334169 0.0215,0.01419 -0.17314,-0.112953 -0.57115,-0.401178 -0.008,0.142303 -0.0143,0.284976 -0.0198,0.428004 0.56229,0.465893 1.06502,0.961816 1.52455,1.509029 0.13419,0.02047 0.26821,0.03971 0.40202,0.05773 -0.373,-0.427354 -0.75534,-0.834587 -1.15406,-1.229316 0.38271,0.1724 0.67241,0.272191 0.85348,0.308898 0.28991,0.06024 0.47489,0.01371 0.55523,-0.129295 0.0831,-0.148002 0.0403,-0.32202 -0.12092,-0.525082 0.004,0.0022 0.007,0.0043 0.0111,0.0065 l 0.48568,-0.834419 c 0.10534,0.06131 0.2112,0.121744 0.31756,0.181294 0.047,0.02633 0.0941,0.05248 0.14136,0.07846 0.10494,0.05775 0.21037,0.114636 0.31625,0.170667 l -0.81323,1.536618 c 0.15619,0.08268 0.3133,0.163614 0.47127,0.242792 l 0.77889,-1.554397 c 0.0821,0.04112 0.16441,0.08173 0.247,0.121831 0.0593,0.02879 0.11873,0.05732 0.17829,0.08559 0.0723,0.03432 0.14482,0.06825 0.2175,0.101786 l -0.72551,1.572144 c 0.16221,0.07488 0.32526,0.147939 0.4891,0.219169 l 0.69025,-1.588036 c 0.13368,0.0581 0.26794,0.114881 0.40274,0.17035 l 0.0899,-0.218416 c -0.13338,-0.05488 -0.26622,-0.111061 -0.39849,-0.168538 0.0861,-0.197965 0.28002,-0.29411 0.57842,-0.299228 0.2689,-0.002 0.58253,0.06694 0.95097,0.199905 0.43988,0.158748 0.93231,0.451077 1.53262,0.869593 0.0995,-0.038 0.19851,-0.07668 0.29687,-0.116035 -0.34605,-0.239533 -0.60289,-0.41638 -0.80603,-0.538242 -0.30653,-0.18533 -0.61508,-0.334171 -0.93278,-0.448718 -1.1e-4,-3.4e-5 -2.2e-4,-6.8e-5 -3.3e-4,-1.02e-4 z m -5.75132,-1.737755 c 0.42472,0.304814 0.8607,0.594035 1.30664,0.86723 l -0.19329,0.31552 c -0.0723,-0.115228 -0.1589,-0.204872 -0.26129,-0.269951 -0.0853,-0.05424 -0.18095,-0.08871 -0.28758,-0.103572 5.8e-4,-0.07562 -0.10894,-0.216183 -0.32284,-0.431187 -0.1998,-0.199316 -0.27833,-0.326904 -0.24164,-0.378039 0,0 0,-1e-6 0,-1e-6 z"/>
    </g>
  </g>
  <metadata id="metadata26386">
    <rdf:RDF>
      <cc:Work rdf:about="">
        <dc:title>Adamjee Cantonment College Monogram</dc:title>
      </cc:Work>
    </rdf:RDF>
  </metadata>
</svg>